<?xml version="1.0" encoding="utf-8"?>
<!-- Generator: Adobe Illustrator 23.1.0, SVG Export Plug-In . SVG Version: 6.00 Build 0)  -->
<svg version="1.1" id="Слой_1" xmlns="http://www.w3.org/2000/svg" xmlns:xlink="http://www.w3.org/1999/xlink" x="0px" y="0px"
	 viewBox="0 0 320.14 121.6" style="enable-background:new 0 0 320.14 121.6;" xml:space="preserve">
<style type="text/css">
	.st0{fill:#FFFFFF;}
</style>
<g>
	<g>
		<path class="st0" d="M169.61,51.89V36.86l-10.37,15.03h-2.16V31.73h2.68v15.06l10.37-15.06h2.16v20.16H169.61z"/>
		<path class="st0" d="M186.31,37.49h2.51v14.4h-2.51v-6.02h-7.46v6.02h-2.5v-14.4h2.5v5.99h7.46V37.49z"/>
		<path class="st0" d="M199.39,52.27c-2.17,0-3.97-0.72-5.41-2.17c-1.44-1.45-2.16-3.25-2.16-5.4c0-2.15,0.72-3.95,2.16-5.4
			c1.44-1.45,3.24-2.17,5.41-2.17c1.42,0,2.7,0.34,3.83,1.02c1.13,0.68,1.98,1.6,2.53,2.75l-2.1,1.21
			c-0.36-0.77-0.93-1.38-1.68-1.84s-1.62-0.69-2.58-0.69c-1.44,0-2.65,0.49-3.61,1.47c-0.97,0.98-1.45,2.2-1.45,3.66
			c0,1.44,0.48,2.65,1.45,3.63c0.97,0.98,2.17,1.47,3.61,1.47c0.96,0,1.82-0.23,2.59-0.68c0.77-0.45,1.35-1.06,1.76-1.83l2.13,1.24
			c-0.61,1.13-1.5,2.04-2.65,2.72C202.06,51.92,200.79,52.27,199.39,52.27z"/>
		<path class="st0" d="M218.82,37.49v2.42h-4.9v11.98h-2.51V39.91h-4.92v-2.42H218.82z"/>
		<path class="st0" d="M231.47,37.49h2.02v14.4h-2.48V41.78l-7.98,10.11h-2.02v-14.4h2.48V47.6L231.47,37.49z"/>
		<path class="st0" d="M248,37.49v2.42h-4.9v11.98h-2.51V39.91h-4.92v-2.42H248z"/>
		<path class="st0" d="M260.32,37.49H263l-5.88,15.29c-0.61,1.63-1.48,2.88-2.59,3.73s-2.38,1.23-3.8,1.14v-2.33
			c1.77,0.13,3.06-0.83,3.89-2.88l0.23-0.52l-6.25-14.43h2.65l4.92,11.29L260.32,37.49z"/>
		<path class="st0" d="M275.9,37.49v2.42h-4.9v11.98h-2.51V39.91h-4.92v-2.42H275.9z"/>
		<path class="st0" d="M162,64.34c2.19,0,3.96,0.71,5.31,2.13c1.35,1.42,2.03,3.24,2.03,5.44c0,2.19-0.68,4-2.04,5.43
			c-1.36,1.43-3.14,2.15-5.33,2.15c-1.54,0-2.88-0.34-4.03-1.02c-1.15-0.68-1.99-1.61-2.51-2.78l2.13-1.24
			c0.31,0.79,0.84,1.42,1.6,1.9c0.76,0.48,1.69,0.72,2.81,0.72c1.25,0,2.29-0.36,3.14-1.09c0.84-0.73,1.38-1.69,1.61-2.88h-6.42
			v-2.36h6.42c-0.23-1.19-0.76-2.15-1.58-2.88c-0.83-0.73-1.86-1.09-3.11-1.09c-1.02,0-1.91,0.24-2.66,0.71
			c-0.76,0.47-1.32,1.1-1.68,1.89l-2.16-1.24c0.58-1.17,1.44-2.09,2.59-2.76S160.56,64.34,162,64.34z"/>
		<path class="st0" d="M182.28,64.72h2.5v14.4h-2.5V73.1h-7.46v6.02h-2.51v-14.4h2.51v5.99h7.46V64.72z"/>
		<path class="st0" d="M190.34,73.07c0.25,1.29,0.84,2.29,1.77,3c0.93,0.71,2.08,1.07,3.44,1.07c1.9,0,3.28-0.7,4.15-2.1l2.13,1.21
			c-1.4,2.17-3.51,3.25-6.34,3.25c-2.29,0-4.14-0.71-5.57-2.15c-1.43-1.43-2.15-3.24-2.15-5.43c0-2.17,0.7-3.97,2.1-5.41
			c1.4-1.44,3.21-2.16,5.44-2.16c2.11,0,3.83,0.75,5.17,2.23c1.33,1.49,2,3.28,2,5.37c0,0.37-0.03,0.74-0.09,1.12H190.34z
			 M195.32,66.71c-1.34,0-2.46,0.38-3.34,1.14c-0.88,0.76-1.43,1.77-1.64,3.04h9.62c-0.21-1.36-0.75-2.4-1.61-3.11
			S196.48,66.71,195.32,66.71z"/>
		<path class="st0" d="M213.32,64.34c2.02,0,3.73,0.73,5.16,2.2c1.42,1.47,2.13,3.26,2.13,5.37c0,2.11-0.71,3.9-2.13,5.37
			c-1.42,1.47-3.14,2.2-5.16,2.2c-2.38,0-4.2-0.95-5.44-2.85v8.24h-2.5V64.72h2.5v2.48C209.13,65.29,210.94,64.34,213.32,64.34z
			 M213.01,77.07c1.44,0,2.65-0.49,3.63-1.48c0.98-0.99,1.47-2.21,1.47-3.67c0-1.46-0.49-2.68-1.47-3.67
			c-0.98-0.99-2.19-1.48-3.63-1.48c-1.46,0-2.68,0.49-3.66,1.48c-0.98,0.99-1.47,2.21-1.47,3.67c0,1.46,0.49,2.68,1.47,3.67
			C210.33,76.58,211.55,77.07,213.01,77.07z"/>
		<path class="st0" d="M233.05,64.72v2.42h-6.94v11.98h-2.5v-14.4H233.05z"/>
		<path class="st0" d="M236.42,73.07c0.25,1.29,0.84,2.29,1.77,3c0.93,0.71,2.08,1.07,3.44,1.07c1.9,0,3.28-0.7,4.15-2.1l2.13,1.21
			c-1.4,2.17-3.51,3.25-6.34,3.25c-2.29,0-4.14-0.71-5.57-2.15c-1.43-1.43-2.15-3.24-2.15-5.43c0-2.17,0.7-3.97,2.1-5.41
			c1.4-1.44,3.22-2.16,5.44-2.16c2.11,0,3.83,0.75,5.17,2.23c1.33,1.49,2,3.28,2,5.37c0,0.37-0.03,0.74-0.09,1.12H236.42z
			 M241.4,66.71c-1.34,0-2.46,0.38-3.34,1.14c-0.88,0.76-1.43,1.77-1.64,3.04h9.62c-0.21-1.36-0.75-2.4-1.61-3.11
			C243.56,67.06,242.55,66.71,241.4,66.71z"/>
		<path class="st0" d="M261.59,64.72v2.42h-4.9v11.98h-2.51V67.14h-4.92v-2.42H261.59z"/>
		<path class="st0" d="M274.23,64.72h2.02v14.4h-2.48V69.01l-7.98,10.11h-2.02v-14.4h2.48v10.11L274.23,64.72z"/>
		<path class="st0" d="M292.23,79.12h-3.11l-6.57-6.83v6.83h-2.5v-14.4h2.5v6.36l6.22-6.36H292l-6.88,6.97L292.23,79.12z"/>
		<path class="st0" d="M305.02,64.72h2.02v14.4h-2.48V69.01l-7.98,10.11h-2.02v-14.4h2.48v10.11L305.02,64.72z"/>
		<path class="st0" d="M167.27,91.95h2.02v14.4h-2.48V96.24l-7.98,10.11h-2.02v-14.4h2.48v10.11L167.27,91.95z"/>
		<path class="st0" d="M194.75,94.11c1.34,1.38,2.02,3.06,2.02,5.04c0,1.98-0.67,3.66-2.02,5.04c-1.34,1.38-3.14,2.2-5.39,2.45v5.47
			h-2.48v-5.47c-2.25-0.25-4.04-1.07-5.39-2.45c-1.34-1.38-2.02-3.06-2.02-5.04c0-1.98,0.67-3.66,2.02-5.04
			c1.34-1.38,3.14-2.2,5.39-2.45v-5.47h2.48v5.47C191.61,91.91,193.4,92.72,194.75,94.11z M181.96,99.14c0,1.33,0.44,2.45,1.31,3.37
			c0.87,0.92,2.08,1.49,3.61,1.7V94.08c-1.54,0.19-2.74,0.75-3.61,1.67C182.4,96.67,181.96,97.8,181.96,99.14z M189.36,104.21
			c1.54-0.21,2.74-0.78,3.6-1.7c0.86-0.92,1.3-2.04,1.3-3.37c0-1.32-0.43-2.45-1.3-3.37c-0.86-0.92-2.06-1.49-3.6-1.7V104.21z"/>
		<path class="st0" d="M210.19,91.95h2.02v14.4h-2.48V96.24l-7.98,10.11h-2.02v-14.4h2.48v10.11L210.19,91.95z"/>
		<path class="st0" d="M225.97,91.95h2.5v14.4h-2.5v-6.02h-7.46v6.02H216v-14.4h2.51v5.99h7.46V91.95z"/>
		<path class="st0" d="M244.2,91.95h2.5v14.4h-2.5v-2.48c-1.25,1.9-3.06,2.85-5.44,2.85c-2.02,0-3.73-0.73-5.16-2.2
			s-2.13-3.26-2.13-5.37c0-2.11,0.71-3.9,2.13-5.37s3.14-2.2,5.16-2.2c2.38,0,4.19,0.95,5.44,2.85V91.95z M239.07,104.3
			c1.46,0,2.68-0.49,3.66-1.48c0.98-0.99,1.47-2.21,1.47-3.67c0-1.46-0.49-2.68-1.47-3.67c-0.98-0.99-2.2-1.48-3.66-1.48
			c-1.44,0-2.65,0.49-3.63,1.48c-0.98,0.99-1.47,2.21-1.47,3.67c0,1.46,0.49,2.68,1.47,3.67
			C236.42,103.81,237.63,104.3,239.07,104.3z"/>
		<path class="st0" d="M260.47,91.95h2.5v14.4h-2.5v-6.02h-7.46v6.02h-2.51v-14.4h2.51v5.99h7.46V91.95z"/>
		<path class="st0" d="M273.54,106.72c-2.17,0-3.97-0.72-5.41-2.17c-1.44-1.45-2.16-3.25-2.16-5.4c0-2.15,0.72-3.95,2.16-5.4
			c1.44-1.45,3.24-2.17,5.41-2.17c1.42,0,2.7,0.34,3.83,1.02c1.13,0.68,1.98,1.6,2.53,2.75l-2.1,1.21
			c-0.36-0.77-0.93-1.38-1.68-1.84s-1.62-0.69-2.58-0.69c-1.44,0-2.65,0.49-3.61,1.47c-0.97,0.98-1.45,2.2-1.45,3.66
			c0,1.44,0.48,2.65,1.45,3.63c0.97,0.98,2.17,1.47,3.61,1.47c0.96,0,1.82-0.23,2.59-0.68c0.77-0.45,1.35-1.06,1.76-1.83l2.13,1.24
			c-0.61,1.13-1.5,2.04-2.65,2.72C276.22,106.38,274.94,106.72,273.54,106.72z"/>
		<path class="st0" d="M294.45,104.53c-1.48,1.46-3.27,2.19-5.39,2.19c-2.11,0-3.9-0.73-5.37-2.19s-2.2-3.25-2.2-5.39
			c0-2.13,0.73-3.93,2.2-5.38s3.26-2.19,5.37-2.19c2.11,0,3.91,0.73,5.39,2.19c1.48,1.46,2.22,3.25,2.22,5.38
			C296.67,101.28,295.93,103.07,294.45,104.53z M289.06,104.27c1.44,0,2.65-0.49,3.63-1.47c0.98-0.98,1.47-2.2,1.47-3.66
			c0-1.46-0.49-2.68-1.47-3.66c-0.98-0.98-2.19-1.47-3.63-1.47c-1.42,0-2.62,0.49-3.6,1.47c-0.98,0.98-1.47,2.2-1.47,3.66
			c0,1.46,0.49,2.68,1.47,3.66C286.44,103.78,287.64,104.27,289.06,104.27z"/>
		<path class="st0" d="M309.22,98.94c1.48,0.61,2.22,1.73,2.22,3.34c0,1.19-0.4,2.17-1.2,2.92c-0.8,0.76-1.93,1.14-3.41,1.14h-7.2
			v-14.4h6.62c1.44,0,2.55,0.36,3.34,1.08c0.79,0.72,1.18,1.67,1.18,2.84C310.78,97.24,310.26,98.27,309.22,98.94z M306.14,94.19
			h-4.06v3.77h4.06c1.46,0,2.19-0.64,2.19-1.93C308.33,94.81,307.6,94.19,306.14,94.19z M306.69,104.07c0.73,0,1.29-0.17,1.68-0.52
			c0.39-0.34,0.59-0.83,0.59-1.47c0-0.59-0.2-1.06-0.59-1.4s-0.96-0.5-1.68-0.5h-4.61v3.89H306.69z"/>
	</g>
	<g>
		<g>
			<path class="st0" d="M75.85,12.61c0.52,1.5,1.05,3.01,1.6,4.51c3.64,9.98,5.44,20.54,5.44,31.16v35.97
				c0,0.42-0.41,0.72-0.82,0.59c-7.81-2.38-13.21-3.47-14.98-3.8c-0.35-0.06-0.56-0.4-0.49-0.74c0.96-4.4,6.56-31.38,8.03-67.51
				C74.67,12.1,75.62,11.95,75.85,12.61z"/>
			<path class="st0" d="M101.36,91.78c-3.74-1.56-7.3-2.91-10.59-4.07c-0.23-0.08-0.39-0.29-0.41-0.54l-3.33-44.25
				c-0.05-0.69,0.88-0.94,1.18-0.31c0.73,1.52,1.47,3.03,2.23,4.54c3.97,7.91,6.87,16.32,8.42,25.03l3.36,18.91
				C102.31,91.59,101.82,91.97,101.36,91.78z"/>
			<path class="st0" d="M126.48,104.11c-6.06-3.48-11.96-6.46-17.53-9.03c-0.17-0.08-0.3-0.23-0.34-0.42l-5.28-22.25
				c-0.16-0.69,0.75-1.07,1.13-0.47c6.98,11.05,14.6,21.47,22.8,31.23C127.7,103.71,127.08,104.46,126.48,104.11z"/>
			<path class="st0" d="M137.58,115.81c0.57,0.39,0.17,1.27-0.5,1.12c-21.16-4.98-43.21-7.61-65.88-7.61
				c-23.09,0-45.55,2.73-67.07,7.89c-0.6,0.14-1.02-0.57-0.59-1.02c15.22-16.05,28.82-34.13,40.37-54.13
				c11.15-19.3,19.79-39.35,26.02-59.79c0.21-0.7,1.24-0.53,1.22,0.2c-0.81,42.41-12.83,78.47-14.8,84.12
				c-0.14,0.39,0.13,0.79,0.54,0.82C62.96,87.83,101.93,91.55,137.58,115.81z"/>
		</g>
	</g>
</g>
</svg>
