<?xml version="1.0" encoding="UTF-8"?>
<!-- Generator: Adobe Illustrator 13.0.0, SVG Export Plug-In . SVG Version: 6.00 Build 14948)  -->
<svg width="170" height="170" enable-background="new 0 0 262.722 205.056" version="1.1" viewBox="0 0 170 170" xml:space="preserve" xmlns="http://www.w3.org/2000/svg" xmlns:cc="http://creativecommons.org/ns#" xmlns:dc="http://purl.org/dc/elements/1.1/" xmlns:rdf="http://www.w3.org/1999/02/22-rdf-syntax-ns#"><metadata><rdf:RDF><cc:Work rdf:about=""><dc:format>image/svg+xml</dc:format><dc:type rdf:resource="http://purl.org/dc/dcmitype/StillImage"/><dc:title/></cc:Work></rdf:RDF></metadata>
<g transform="translate(87.757 -78.5)"><polygon transform="matrix(.51641 0 0 .51641 -70.593 110.55)" points="219.3 187.25 219.3 186.16 45.829 186.16 45.829 187.25" clip-rule="evenodd" fill-rule="evenodd"/><polygon transform="matrix(.51641 0 0 .51641 -70.593 110.55)" points="219.3 162.67 219.3 161.59 45.829 161.59 45.829 162.67" clip-rule="evenodd" fill-rule="evenodd"/><g fill="#18488b"><polygon transform="matrix(.51641 0 0 .51641 -70.593 110.55)" points="51.288 166.56 53.821 166.56 59.709 177.18 65.428 166.56 67.961 166.56 73.496 182.31 68.833 182.31 66.041 173.83 60.582 182.53 58.876 182.53 53.379 173.83 50.453 182.31 45.829 182.31"/><polygon transform="matrix(.51641 0 0 .51641 -70.593 110.55)" points="104.64 169.02 92.843 169.02 92.843 182.31 88.078 182.31 88.078 166.56 104.64 166.56"/><polygon transform="matrix(.51641 0 0 .51641 -70.593 110.55)" points="140.42 182.31 135.7 182.31 135.7 171.71 121.77 182.56 119.77 182.56 119.77 166.56 124.5 166.56 124.5 177.16 138.42 166.31 140.42 166.31"/><polygon transform="matrix(.51641 0 0 .51641 -70.593 110.55)" points="160.66 166.56 163.15 166.56 168.93 177.18 174.55 166.56 177.04 166.56 182.47 182.31 177.89 182.31 175.15 173.83 169.79 182.53 168.11 182.53 162.71 173.83 159.84 182.31 155.3 182.31"/><path d="m30.641 200.56c0-1.1547 0.5381-2.1364 1.6117-2.9378 1.0736-0.80405 2.5118-1.2063 4.3136-1.2063 1.9577 0 3.4636 0.35994 4.515 1.0814 1.0509 0.7209 1.5766 1.7408 1.5766 3.0633 0 1.3282-0.54791 2.3714-1.6411 3.1356-1.0958 0.76274-2.6466 1.1438-4.6492 1.1438-1.8648 0-3.2844-0.38318-4.2619-1.1526-0.97446-0.76893-1.4645-1.811-1.4645-3.1274zm2.5345 0c0 0.99047 0.27576 1.7356 0.82677 2.2381 0.55101 0.50143 1.3401 0.75344 2.3652 0.75344 1.2203 0 2.1534-0.25201 2.7943-0.75654s0.96104-1.2487 0.96104-2.235c0-1.9061-1.1857-2.8604-3.557-2.8604-1.1025 0-1.9422 0.25614-2.5221 0.77151-0.57631 0.51486-0.86808 1.2105-0.86808 2.0889z" stroke-width=".51641"/><path d="m-35.142 210.9c-0.30984 1.1113-0.69818 2.1343-1.1666 3.067-0.46787 0.93315-0.91817 1.5714-1.3494 1.9174-0.4312 0.34393-1.0003 0.51744-1.7062 0.51744v-0.88977c0.02944 5e-3 0.08831 7e-3 0.17506 7e-3 0.32017 0 0.58302-0.0563 0.79217-0.17145 0.20708-0.11412 0.39144-0.2866 0.55359-0.51641l-1.967-3.9314h1.0834l1.4423 3.1713c0.4436-0.89752 0.82212-1.9546 1.1345-3.1713zm5.9635 5.4491v-2.454h-2.1844v2.454h-0.97446v-5.4497h0.97446v2.1333h2.1844v-2.1333h0.95897v5.4497zm8.544 0h-0.97446v-3.6665l-2.8697 3.7512h-0.41313v-5.5344h0.97446v3.6675l2.8697-3.7522h0.41313zm5.0071 0h-1.6788v-5.4497c0.86189-0.0362 1.3809-0.0553 1.5549-0.0553 0.56805 0 1.0127 0.12187 1.3365 0.36406 0.32379 0.24323 0.48491 0.59026 0.48491 1.038 0 0.43792-0.23135 0.77978-0.69302 1.0246 0.68166 0.23393 1.023 0.7209 1.023 1.4635 0 0.49524-0.18952 0.88977-0.56547 1.179-0.3775 0.29177-0.86498 0.43585-1.462 0.43585zm-0.7049-4.6714v1.3029c0.19572 9e-3 0.35426 0.0139 0.47561 0.0139 0.63467 0 0.95174-0.236 0.95174-0.71006 0-0.42139-0.28919-0.6326-0.8686-0.6326-0.14924 5.2e-4 -0.33618 9e-3 -0.55875 0.0258zm0 2.0584v1.8054c0.19675 0.015 0.35787 0.0222 0.48388 0.0222 0.40641 0 0.71471-0.0677 0.9223-0.20656 0.20708-0.13737 0.31088-0.38627 0.31088-0.74518 0-0.30571-0.08934-0.52932-0.2675-0.67288-0.17919-0.14201-0.49885-0.21276-0.95794-0.21276-0.17558-5.2e-4 -0.33928 2e-3 -0.49162 0.01zm6.7794-1.983v1.2802h1.8178v0.82212h-1.8178v1.6339h2.485v0.86034h-3.4594v-5.4497h3.5043v0.8531zm6.6183 2.5903v2.0062h-0.97446v-5.4497c0.71729-0.0284 1.0984-0.0403 1.1433-0.0403 0.85414 0 1.4847 0.13013 1.8901 0.3935 0.40538 0.26337 0.60885 0.67598 0.60885 1.2404 0 1.2497-0.74208 1.8751-2.2252 1.8751-0.11309 0-0.25975-7e-3 -0.44256-0.0253zm0-2.6063v1.746c0.16732 0.015 0.29797 0.0232 0.3904 0.0232 0.44463 0 0.76842-0.0728 0.97446-0.21896 0.2045-0.14407 0.30726-0.38524 0.30726-0.72039 0-0.56288-0.4596-0.84536-1.3752-0.84536-0.13891 5.2e-4 -0.23703 5e-3 -0.29693 0.0155zm9.4993-0.54791-0.39815 0.80095c-0.21896-0.21999-0.56805-0.33102-1.0447-0.33102-0.47974 0-0.86034 0.19778-1.1433 0.59129-0.28144 0.39556-0.42294 0.87169-0.42294 1.4294 0 0.55979 0.13168 1.0158 0.39402 1.3685 0.26234 0.3527 0.62795 0.53138 1.0974 0.53138 0.51796 0 0.92076-0.18332 1.211-0.54791l0.46064 0.78494c-0.39867 0.41674-0.98324 0.62537-1.7496 0.62537-0.77255 0-1.3685-0.252-1.7919-0.75344-0.42191-0.5035-0.63312-1.1841-0.63312-2.0455 0-0.79888 0.23393-1.4728 0.69922-2.0212 0.46528-0.54791 1.0715-0.82316 1.8183-0.82316 0.62072 0 1.1211 0.13014 1.5033 0.39041zm7.3908 5.16h-0.97446v-3.6665l-2.8702 3.7512h-0.41364v-5.5344h0.97498v3.6675l2.8702-3.7522h0.41313zm5.7037-4.596v4.596h-0.97498v-4.596h-1.7418v-0.8531h4.5459v0.8531zm5.7812 0v1.2802h1.8178v0.82212h-1.8178v1.6339h2.4855v0.86034h-3.4594v-5.4497h3.5043v0.8531zm8.0198 0v4.596h-0.97446v-4.596h-1.7418v-0.8531h4.5454v0.8531z" stroke-width=".51641"/></g><path d="m-2.7562 126.16c37.363 0 67.835 14.471 67.835 32.214 0 17.743-30.472 32.214-67.835 32.214-37.364 0-67.836-14.471-67.836-32.214 0-17.742 30.472-32.214 67.836-32.214z" clip-rule="evenodd" fill="#fff" fill-rule="evenodd" stroke-width=".51641"/><polygon transform="matrix(.51641 0 0 .51641 -70.593 110.55)" points="117.73 151.14 103.36 151.14 103.36 77.853 50.116 33.591 64.493 33.591 117.73 76.029" fill="none" stroke="#fff" stroke-linecap="square" stroke-miterlimit="10" stroke-width=".4927"/><polygon transform="matrix(.51641 0 0 .51641 -70.593 110.55)" points="117.73 151.14 103.36 151.14 103.36 77.853 50.116 33.591 64.493 33.591 117.73 76.029" fill="none" stroke="#fff" stroke-linecap="square" stroke-miterlimit="10" stroke-width=".4927"/><g clip-rule="evenodd" fill-rule="evenodd"><path d="m-35.208 173.58 1.6189-0.19468 1.6102-0.18643 1.5849-0.16938 1.5678-0.16164 1.5508-0.14407 1.5255-0.13633 1.5084-0.12704 1.4661-0.11 1.4496-0.10173 1.4067-0.0847 1.3731-0.0847 1.3303-0.0676 1.2967-0.0687 1.2544-0.0516 1.2037-0.0496 1.1526-0.0434 2.1607-0.0594 1.9412-0.0423 1.6866-0.0253 1.432-0.017h1.1449l0.84743 9e-3h0.52519l0.17816 8e-3h2.3734l1.1779 9e-3 1.1609 0.016 1.1516 0.0263 1.1366 0.0253 1.1356 0.0331 1.1185 0.0341 1.1025 0.0423 1.1005 0.0423 1.0865 0.0516 1.0659 0.0496 1.0612 0.0594 1.0509 0.0604 1.0338 0.0677 1.0246 0.0676 2.0171 0.15234 1.9577 0.16216 1.9071 0.17764 1.856 0.17765 1.7966 0.19571 1.7449 0.20399 1.6876 0.20294 1.6267 0.21173-0.64448 0.81489-0.66978 0.79785-0.7018 0.77875-0.72917 0.75654-0.76377 0.73743-0.78649 0.72039-0.81386 0.70489-0.84743 0.67857-0.87325 0.66048-0.88977 0.63622-0.92386 0.61039-0.94916 0.59387-0.9662 0.56805-0.9915 0.54378-1.0178 0.51744-1.0338 0.5004-1.0509 0.4658-1.0772 0.44153-1.1005 0.41467-1.1103 0.39041-1.1356 0.35684-1.1516 0.32998-1.1619 0.30675-1.1862 0.27111-1.195 0.2453-1.2203 0.21172-1.2203 0.17868-1.2456 0.15338-1.2466 0.11722-1.2709 0.0847-1.2709 0.0527-1.2884 0.016-1.2967-0.016-1.2802-0.0594-1.2714-0.0847-1.2626-0.11981-1.2461-0.14305-1.2373-0.18642-1.2203-0.21173-1.2032-0.24632-1.1867-0.27938-1.1691-0.30571-1.1614-0.33877-1.1356-0.3651-1.1185-0.3904-1.102-0.41674-1.085-0.44773-1.0592-0.47613-1.0426-0.5004-1.0173-0.5257-0.9915-0.55049-0.97446-0.56909-0.95019-0.60316-0.92386-0.61917-0.89855-0.64448-0.87273-0.66152-0.83916-0.68786-0.82212-0.71109-0.78804-0.7302-0.76274-0.74518-0.72917-0.76377-0.69509-0.78855-0.66926-0.80612zm15.763 13.8-1.2884-0.16163-1.2709-0.17971-1.2626-0.18539-1.2544-0.19469-1.2456-0.21173-1.2291-0.22102-1.2203-0.22877-1.2037-0.24736-1.195-0.24529-1.1779-0.26234-1.1697-0.28041-1.1526-0.27937-1.1438-0.29746-1.1191-0.30468-1.1191-0.31449-1.0932-0.32172-1.085-0.33102-1.0679-0.34806-1.0509-0.34806-1.0338-0.36407-1.0168-0.37439-1.0003-0.38214-0.9915-0.38008-0.9662-0.39918-0.95742-0.40745-0.93212-0.41468-0.91508-0.42448-0.89855-0.43172-0.88151-0.43275-0.86447-0.44979-0.83916-0.4498-0.82212-0.4658 1.0003-0.25407 1.0085-0.24736 1.0085-0.23703 1.0256-0.22774 1.0168-0.22205 1.0256-0.2107 2.0677-0.40796 1.0338-0.19468 1.0426-0.18643 1.0338-0.17868 1.0426-0.16938 1.0338-0.16215 1.0338-0.1606 1.0426-0.15234 1.0256-0.14408 0.38989 0.54274 0.40693 0.54172 0.41519 0.53448 0.43223 0.52725 0.4405 0.51641 0.44928 0.51744 0.4658 0.50143 0.47458 0.49937 0.49162 0.49214 0.49988 0.48439 0.50866 0.4751 0.5257 0.46476 0.53397 0.44979 0.54223 0.4498 0.55101 0.44153 0.56805 0.43275 0.57631 0.42345 0.58457 0.41571 0.59335 0.40745 0.6104 0.39763 0.6104 0.38214 0.62692 0.38214 0.6357 0.36407 0.64448 0.35581 0.65274 0.34702 0.661 0.34083 0.66978 0.32999 0.67804 0.31449 0.68682 0.30365 0.68631 0.29848 0.70335 0.28868zm68.004-10.196-0.82316 0.45908-0.83813 0.44979-0.8655 0.43275-0.87221 0.43275-0.89855 0.42243-0.90681 0.42448-0.93212 0.40745-0.94916 0.39815-0.9662 0.39041-0.9755 0.38111-0.99977 0.37439-1.0085 0.36407-1.0338 0.35529-1.0431 0.34806-1.0592 0.33979-1.0762 0.33102-1.0845 0.32276-1.1025 0.30571-1.1185 0.30468-1.1356 0.28764-1.1438 0.28041-1.1526 0.27215-1.1702 0.25407-1.1862 0.25407-1.195 0.23807-1.2032 0.22773-1.2213 0.22103-1.2275 0.20398-1.2476 0.19572-1.2528 0.18642-1.2637 0.16938-1.2709 0.16164 0.70386-0.27112 0.69405-0.28041 0.68786-0.29641 0.67804-0.29745 0.67804-0.3145 0.66049-0.32998 0.65274-0.33102 1.289-0.69612 0.6264-0.3651 0.61917-0.37233 0.60936-0.38111 0.6011-0.3904 0.58612-0.39815 0.58509-0.40745 0.56805-0.42346 0.56805-0.42448 0.55049-0.43172 0.53345-0.44153 0.53448-0.45909 0.51641-0.45702 0.50815-0.46683 0.5004-0.4751 0.48336-0.48336 0.4751-0.4911 0.4658-0.5004 0.44876-0.50246 0.44101-0.51745 0.43275-0.5164 0.41468-0.52571 0.39815-0.53448 0.3904-0.54275 1.7026 0.25408 1.62 0.2551 1.5342 0.25304 1.4496 0.25511 1.3638 0.24633 1.2719 0.23806 1.1769 0.22774 1.0855 0.22102 0.9915 0.21173 0.89855 0.19468 0.78752 0.17868 0.70386 0.16163 0.58509 0.14408 0.4911 0.11826 0.38111 0.10277zm-87.217-5.147-1.763 0.26234-1.6783 0.26233-1.5931 0.27215-1.5002 0.27112-1.4155 0.26336-1.3308 0.26337-1.2373 0.25408-1.1526 0.25407-1.0597 0.23806-0.97446 0.22877-0.88151 0.2107-0.78804 0.19468-0.69509 0.18746-0.60213 0.16163-0.50815 0.14305-0.41519 0.11981-0.66926-0.44153-0.65274-0.44979-0.6357-0.44876-0.61866-0.45806-0.60162-0.45805-0.58458-0.4751-0.56805-0.4658-0.54223-0.48439-0.53397-0.48439-0.50866-0.48233-0.49162-0.49213-0.47458-0.5004-0.45754-0.50143-0.43223-0.50815-0.41519-0.50815-0.39815-0.51744-0.38111-0.51744-0.35581-0.5257-0.3305-0.52674-0.32224-0.5257-0.29642-0.53449-0.27112-0.54274-0.25407-0.54378-0.22877-0.54223-0.21173-0.55152-0.18642-0.55101-0.1699-0.54997-0.14408-0.55979-0.11877-0.56805-0.10173-0.55979-0.07591-0.56908-0.05112-0.56805h25.806l0.01704 0.42346 0.0253 0.43275 0.03357 0.42397 0.04235 0.42397 0.05112 0.42397 0.05061 0.41623 0.05939 0.42345 0.06765 0.41571 0.07591 0.41571 0.08469 0.41571 0.08469 0.40693 0.09347 0.41571 0.10173 0.40744 0.11 0.40745 0.11 0.40641 0.11877 0.39919 0.12704 0.40538 0.13582 0.39918 0.13582 0.3904 0.14408 0.39815 0.15234 0.39041 0.15234 0.39815 0.16938 0.38214 0.16938 0.39041 0.1699 0.38111 0.17764 0.38214 0.18642 0.38008 0.19469 0.38214 0.20346 0.37233 0.20346 0.37439 0.20346 0.3651zm69.952-0.17867-1.6432-0.21173-1.6277-0.2045-1.6179-0.19468-1.6019-0.16835-1.5854-0.16164-1.5596-0.14511-1.5353-0.1353-1.5069-0.12704-1.4743-0.10999-1.4506-0.10277-1.4062-0.0847-1.3726-0.0847-1.3313-0.0677-1.289-0.0594-1.2445-0.0506-1.1872-0.0506-1.1438-0.0341-1.0845-0.033-1.0338-0.0274-0.9662-0.0243-1.7548-0.0253-1.4836-9e-3 -1.1852-9e-3 -0.88151 9e-3h-0.54378l-0.17764 9e-3 -1.2967-9e-3 -1.2797-9e-3 -1.2631 9e-3 -1.2456 9e-3 -1.2373 0.017-1.2203 0.017-1.2037 0.0253-1.1945 0.0253-1.1784 0.0423-1.1609 0.0341-1.1526 0.0506-1.1273 0.0423-1.1185 0.0594-1.1103 0.0584-1.085 0.0604-1.0762 0.0666-1.0597 0.0676-1.0426 0.0775-1.0338 0.0764-1.0173 0.0754-1.983 0.17764-1.9236 0.17971-1.8648 0.19469-1.7966 0.20398-1.746 0.20398-1.6783 0.21999-0.22051-0.35684-0.21173-0.35529-0.21173-0.3651-0.20346-0.36407-0.20346-0.3651-0.19469-0.37336-0.18642-0.37336-0.35632-0.74673-0.16938-0.38111-0.16112-0.38214-0.16112-0.38214-0.14408-0.38008-0.14408-0.39144-0.13582-0.3904-0.13582-0.38937-0.12704-0.39815-0.11826-0.39041-0.11-0.39815-0.10173-0.39918-0.10173-0.40745-0.08469-0.39815-0.08469-0.40693-0.07643-0.40693-0.07591-0.40745-0.05939-0.41571-0.05939-0.40641-0.05061-0.41622-0.04235-0.41571-0.03408-0.41623-0.03357-0.42345-0.01704-0.41571h75.902l-0.01704 0.42345-0.03305 0.42449-0.03408 0.42397-0.04234 0.41571-0.05061 0.41571-0.05939 0.42397-0.06765 0.40693-0.06868 0.41571-0.08469 0.41571-0.08469 0.40693-0.09295 0.40693-0.10173 0.40796-0.10173 0.40745-0.11826 0.39763-0.11877 0.39918-0.12704 0.39764-0.13633 0.40022-0.1353 0.38937-0.14408 0.39918-0.16164 0.38008-0.15234 0.3904-0.17042 0.38214-0.16835 0.38938-0.17764 0.37439-0.18642 0.38008-0.19469 0.3744-0.19675 0.37336-0.20192 0.37233-0.21173 0.3651-0.21276 0.3651-0.21999 0.3651zm31.936-12.645-0.05164 0.57683-0.0754 0.57631-0.10173 0.57632-0.12704 0.56908-0.15337 0.56805-0.16938 0.56908-0.19469 0.55927-0.21173 0.55101-0.24633 0.55927-0.25407 0.55152-0.28764 0.54275-0.30675 0.54274-0.32172 0.54378-0.34703 0.53448-0.3651 0.52571-0.38937 0.52467-0.40641 0.52725-0.43172 0.51744-0.45082 0.51744-0.46477 0.50815-0.4911 0.5004-0.50815 0.5004-0.5257 0.49214-0.54274 0.49213-0.56805 0.48233-0.58509 0.47509-0.60213 0.4751-0.61814 0.46683-0.63518 0.46684-0.65377 0.44979-0.67701 0.45805-0.68682 0.43998-1.0338-0.29538-1.0509-0.28971-1.0592-0.27938-1.0602-0.26233-1.0762-0.26337-1.0762-0.24736-1.0762-0.24529-1.0932-0.22981-1.0932-0.22773-1.0932-0.21173-1.1015-0.21173-1.0932-0.19571-1.1025-0.19469-2.203-0.35736-1.0932-0.17041 0.21999-0.36407 0.21173-0.38111 0.20398-0.37439 0.20398-0.38008 0.19469-0.3744 0.19469-0.38937 0.18539-0.38214 0.17868-0.3904 0.16938-0.38938 0.17042-0.3904 0.1606-0.39919 0.15234-0.39763 0.14408-0.39918 0.14304-0.39764 0.13736-0.40744 0.12704-0.40745 0.12704-0.40641 0.11-0.40745 0.11-0.41571 0.10173-0.40744 0.10173-0.41623 0.08469-0.41468 0.08469-0.42448 0.0754-0.41571 0.06868-0.42346 0.1167-0.84794 0.05267-0.43275 0.04234-0.42397 0.03305-0.43275 0.0253-0.43223 0.01704-0.43276zm-105.76-2.0186h-25.806l0.05112-0.56856 0.07591-0.56805 0.09347-0.56857 0.11826-0.55978 0.14408-0.55979 0.16938-0.55152 0.18642-0.55101 0.21224-0.55153 0.22877-0.55152 0.25407-0.54274 0.27111-0.53449 0.29642-0.53448 0.31346-0.53448 0.33876-0.52571 0.3558-0.52622 0.37285-0.51744 0.39815-0.51744 0.41519-0.50866 0.43223-0.50866 0.45754-0.5004 0.4658-0.49214 0.49162-0.49988 0.51692-0.48388 0.5257-0.48336 0.55049-0.48335 0.56805-0.46632 0.57631-0.4751 0.60162-0.45805 0.61866-0.45806 0.6357-0.44927 0.65274-0.44979 0.66926-0.44101 0.40693 0.11877 0.50866 0.14408 0.59335 0.16112 0.69509 0.17816 0.78804 0.20346 0.88151 0.21225 0.9662 0.22876 1.0592 0.23755 1.1526 0.24581 1.2461 0.26286 1.3308 0.26285 1.4237 0.26337 1.5084 0.27111 1.5931 0.27163 1.6783 0.27111 1.7713 0.26286-0.21224 0.3651-0.21173 0.37336-0.20346 0.37336-0.19469 0.37337-0.19469 0.38162-0.18642 0.37337-0.17816 0.38162-0.17816 0.38989-0.16938 0.38163-0.16112 0.38988-0.15234 0.38989-0.15234 0.39867-0.14408 0.38989-0.13582 0.39867-0.13582 0.39815-0.12704 0.40744-0.11826 0.39867-0.21999 0.81386-0.09347 0.40693-0.10173 0.41622-0.08469 0.40693-0.07643 0.41571-0.07591 0.4152-0.06765 0.4157-0.05939 0.42398-0.05939 0.4157-0.04235 0.42397-0.04235 0.42398-0.03357 0.42397-0.0253 0.43223zm77.928 0h-75.902l0.01704-0.4157 0.0253-0.42398 0.04235-0.4157 0.0847-0.83142 0.05939-0.40693 0.06765-0.41571 0.06765-0.40693 0.07591-0.40745 0.08469-0.40693 0.09347-0.39866 0.09347-0.40693 0.21999-0.79734 0.11826-0.38989 0.11877-0.39866 0.13582-0.38989 0.1353-0.39041 0.14408-0.38988 0.14408-0.38163 0.16112-0.38163 0.16112-0.38162 0.1699-0.38214 0.16938-0.38163 0.18642-0.37336 0.18642-0.37285 0.19469-0.3651 0.19469-0.36458 0.20346-0.36459 0.21224-0.3651 0.22051-0.35632 0.21999-0.35581 1.6783 0.21225 1.7377 0.21172 1.8054 0.20399 1.8642 0.19468 0.94916 0.0935 0.97498 0.0847 0.98324 0.0852 1.0003 0.0852 1.0168 0.0847 1.0256 0.0764 1.0509 0.0759 1.0597 0.0682 1.0762 0.0676 1.085 0.0594 1.1103 0.0589 1.1185 0.0511 1.1356 0.0511 1.1444 0.0506 1.1691 0.0336 1.1784 0.0341 1.1862 0.0341 1.212 0.0248 1.2203 0.017 1.2373 0.017 1.2456 9e-3h2.5428l1.2967-9e-3h0.17764l0.54378 9e-3 0.88151 8e-3 1.1852-8e-3 1.4836-9e-3 1.7548-0.0253 0.97446-0.0253 1.0256-0.0253 1.0932-0.0341 1.1345-0.0336 1.196-0.0511 1.2456-0.0511 1.2879-0.0594 1.3303-0.0759 1.3716-0.0759 1.4082-0.0935 1.4496-0.0929 1.4743-0.11878 1.5089-0.11877 1.5342-0.13582 1.5596-0.14459 1.5843-0.16112 1.6019-0.17816 1.6189-0.18642 1.636-0.20399 1.6442-0.21999 0.21896 0.36459 0.22206 0.35632 0.21999 0.36458 0.20295 0.37337 0.2045 0.36458 0.20192 0.37337 0.18746 0.38162 0.18642 0.37336 0.17868 0.38163 0.16938 0.38163 0.16938 0.3904 0.1606 0.38163 0.15337 0.38988 0.14304 0.39041 0.13633 0.39867 0.1353 0.39815 0.126 0.39866 0.11981 0.39867 0.11877 0.39867 0.1007 0.40693 0.10173 0.40745 0.09399 0.40693 0.08469 0.40744 0.0754 0.41571 0.0754 0.40693 0.06042 0.41622 0.05939 0.41571 0.05061 0.42397 0.04234 0.41571 0.03408 0.42397 0.03305 0.42398zm15.408-16.649 0.68682 0.44101 0.67804 0.44979 0.65274 0.45806 0.63467 0.46683 0.62021 0.46632 0.6011 0.47509 0.58406 0.47458 0.55979 0.48388 0.55152 0.49213 0.52467 0.49163 0.50143 0.50039 0.49007 0.50867 0.46683 0.50866 0.44876 0.50866 0.43275 0.51744 0.40641 0.52622 0.3904 0.52571 0.36407 0.53448 0.34806 0.53448 0.32172 0.53397 0.30365 0.54326 0.28041 0.55101 0.26337 0.55101 0.23703 0.551 0.21069 0.55979 0.19572 0.55979 0.16938 0.56856 0.15234 0.56857 0.11981 0.56805 0.10173 0.57682 0.0754 0.57683 0.05939 0.57683h-25.806l-0.02634-0.43275-0.0253-0.43275-0.03305-0.43223-0.04234-0.42397-0.05267-0.43224-0.04957-0.42397-0.05939-0.42397-0.07643-0.42397-0.0754-0.41571-0.07643-0.42449-0.09295-0.41571-0.09399-0.41519-0.1007-0.41571-0.11103-0.40744-0.11826-0.41571-0.11877-0.40693-0.12704-0.39815-0.1353-0.40745-0.14408-0.39867-0.14511-0.40693-0.15234-0.3904-0.1606-0.39815-0.16938-0.39041-0.16938-0.3904-0.17868-0.38989-0.18539-0.39041-0.18642-0.38162-0.19675-0.38111-0.20192-0.37336-0.21173-0.38163-0.21276-0.37336-0.21999-0.37337 1.1015-0.16989 1.1025-0.16939 1.1015-0.18642 1.1025-0.18642 1.1015-0.20398 1.0932-0.20347 1.1015-0.22051 1.0932-0.2205 1.0845-0.23755 1.0855-0.23703 1.0762-0.25407 1.0762-0.25511 1.0602-0.27111 1.0592-0.2799 1.0509-0.28867zm-88.284 1.9763-1.0338-0.14407-1.0426-0.15286-1.0338-0.16112-1.0426-0.1699-1.0338-0.16938-1.0426-0.17868-1.0338-0.18642-1.0426-0.19469-1.0338-0.1952-1.0338-0.21224-1.0256-0.21225-1.0256-0.2205-1.0168-0.22877-1.0168-0.23755-1.0085-0.24581-1.0003-0.25459 0.82212-0.46632 0.84743-0.44927 0.86447-0.44979 0.87273-0.44102 0.90681-0.43275 0.91508-0.42397 0.93212-0.41622 0.95742-0.40693 0.9662-0.39867 0.9915-0.38163 1.0003-0.38162 1.0168-0.37337 1.0426-0.36458 1.0509-0.34754 1.0679-0.34754 1.085-0.33102 1.0932-0.3305 1.1191-0.31398 1.1273-0.30571 1.1356-0.28816 1.1526-0.28867 1.1697-0.27112 1.1867-0.27163 1.195-0.24581 1.2037-0.24632 1.2203-0.22877 1.2285-0.22051 1.2461-0.21224 1.2544-0.20347 1.2714-0.18642 1.2709-0.1699 1.2884-0.16938-0.71161 0.27989-0.70335 0.28867-0.69509 0.29694-0.68631 0.3052-0.67804 0.31397-0.66926 0.3305-0.661 0.33928-0.65274 0.34755-0.64396 0.35632-0.6357 0.37336-0.62692 0.37285-0.6104 0.38989-0.6104 0.39866-0.59335 0.40693-0.58561 0.409-0.57631 0.42397-0.56805 0.44101-0.55927 0.44102-0.54223 0.44979-0.53397 0.45805-0.51692 0.46632-0.51692 0.47458-0.49988 0.48387-0.49162 0.49162-0.47458 0.49214-0.4658 0.50866-0.44928 0.51744-0.4405 0.51744-0.43223 0.52571-0.41519 0.53448-0.39815 0.54275zm67.479 0.14408-1.636 0.21225-1.6866 0.20346-1.7377 0.20347-1.8054 0.18642-1.856 0.18694-1.9061 0.17816-1.9587 0.16112-2.0083 0.14408-1.0256 0.0759-1.0421 0.0594-1.0437 0.0677-1.0659 0.0599-1.0679 0.0506-1.0855 0.0506-1.1015 0.0429-1.1103 0.0423-1.1185 0.0336-1.1268 0.0341-1.1459 0.0253-1.1516 0.0253-1.1609 9e-3 -1.1779 0.017h-2.5516l-0.52519 9e-3 -0.84743 9e-3 -1.1449-9e-3 -1.432-9e-3 -1.6949-0.0253-1.9329-0.0423-2.1607-0.0594-1.1614-0.0423-1.2032-0.0511-1.2544-0.0506-1.2967-0.0677-1.3308-0.0682-1.3726-0.0847-1.415-0.0935-1.4408-0.10173-1.4749-0.11051-1.5002-0.11826-1.5255-0.13582-1.5508-0.14408-1.5761-0.16111-1.5849-0.1699-1.6102-0.18643-1.6189-0.20346 0.6357-0.82264 0.66927-0.8056 0.70335-0.78029 0.72865-0.77203 0.76274-0.74621 0.78804-0.72917 0.82212-0.71264 0.83916-0.68734 0.87273-0.66978 0.89803-0.645 0.92386-0.61866 0.94916-0.60213 0.97498-0.56856 0.9915-0.55101 1.0256-0.52622 1.0338-0.49988 1.0674-0.4751 1.0762-0.44979 1.102-0.42397 1.1185-0.39041 1.1444-0.36458 1.1526-0.33928 1.1779-0.3052 1.1862-0.27163 1.212-0.25407 1.2203-0.21225 1.2291-0.1859 1.2544-0.14408 1.2544-0.11878 1.2797-0.0935 1.2802-0.0511 1.2967-0.0165 1.2884 0.0165 1.2802 0.0511 1.2616 0.0847 1.2559 0.11877 1.2368 0.15286 1.2296 0.17816 1.2115 0.21172 1.2032 0.24633 1.1872 0.27163 1.1609 0.30468 1.1526 0.33102 1.1356 0.3651 1.1185 0.38989 1.0932 0.41571 1.0762 0.44101 1.0592 0.46683 1.0338 0.5004 1.0168 0.51745 0.9915 0.54274 0.9662 0.56857 0.94916 0.59335 0.92386 0.61091 0.8908 0.64448 0.87221 0.65325 0.84846 0.68734 0.81179 0.69561 0.78959 0.72916 0.76274 0.73795 0.72814 0.76325 0.70386 0.77203 0.66978 0.79682zm-15.663-13.672 1.2709 0.16938 1.2709 0.1699 1.2559 0.18642 1.2373 0.19469 1.2368 0.20347 1.2192 0.2205 1.2043 0.22877 1.195 0.23755 1.1872 0.25459 1.1681 0.26285 1.1609 0.26337 1.1459 0.28815 1.1345 0.28868 1.1185 0.29693 1.1025 0.31346 1.0922 0.32276 1.069 0.32223 1.0679 0.33928 1.0421 0.34755 1.0256 0.3651 1.0168 0.36458 1.0008 0.37337 0.97446 0.38162 0.9662 0.38989 0.94916 0.40693 0.93212 0.40745 0.91559 0.4157 0.88977 0.42398 0.88151 0.43223 0.8562 0.44101 0.83916 0.44928 0.82212 0.45805-0.25407 0.0682-0.37336 0.0935-0.48439 0.11826-0.58406 0.13633-0.68682 0.16112-0.79578 0.18642-0.8908 0.1952-0.9915 0.20347-1.0932 0.22928-1.1779 0.22877-1.2791 0.24581-1.3659 0.24581-1.4573 0.25459-1.5503 0.25407-1.6277 0.25459-1.7196 0.25459-0.3904-0.53448-0.39918-0.53448-0.41364-0.53448-0.43275-0.51693-0.44153-0.51744-0.44773-0.49988-0.4658-0.5004-0.4751-0.49214-0.48439-0.48336-0.49937-0.47509-0.50815-0.47458-0.51641-0.45806-0.53448-0.44979-0.54378-0.44928-0.54946-0.43275-0.55875-0.42397-0.57683-0.42397-0.57683-0.40693-0.5918-0.39815-0.60213-0.39867-0.61143-0.38162-0.61711-0.37285-0.63518-0.35632-0.63622-0.35581-0.64344-0.34806-0.66152-0.33101-0.66049-0.33102-0.66978-0.31346-0.68579-0.29694-0.68786-0.29693-0.69405-0.27989z" fill="#1586c8" stroke-width=".51641"/><polygon transform="matrix(.51641 0 0 .51641 -70.593 110.55)" points="145.03 152.94 162.13 152.94 162.13 78.883 218.46 32.076 199.27 32.076 145.03 75.319" fill="#1f1a17"/><polygon transform="matrix(.51641 0 0 .51641 -70.593 110.55)" points="146.44 151.26 160.82 151.26 160.82 77.98 214.06 33.718 199.68 33.718 146.44 76.156" fill="#c32827"/></g><polygon transform="matrix(.51641 0 0 .51641 -70.593 110.55)" points="146.44 151.26 160.82 151.26 160.82 77.98 214.06 33.718 199.68 33.718 146.44 76.156" fill="none" stroke="#c32827" stroke-linecap="square" stroke-miterlimit="10" stroke-width=".4927"/><polygon transform="matrix(.51641 0 0 .51641 -70.593 110.55)" points="118.48 152.94 101.38 152.94 101.38 78.883 45.052 32.076 64.237 32.076 118.48 75.319" clip-rule="evenodd" fill="#1f1a17" fill-rule="evenodd"/><polygon transform="matrix(.51641 0 0 .51641 -70.593 110.55)" points="117.07 151.26 102.69 151.26 102.69 77.98 49.451 33.718 63.827 33.718 117.07 76.156" clip-rule="evenodd" fill="#fff" fill-rule="evenodd"/><polygon transform="matrix(.51641 0 0 .51641 -70.593 110.55)" points="117.07 151.26 102.69 151.26 102.69 77.98 49.451 33.718 63.827 33.718 117.07 76.156" fill="none" stroke="#fff" stroke-linecap="square" stroke-miterlimit="10" stroke-width=".4927"/><polygon transform="matrix(.51641 0 0 .51641 -70.593 110.55)" points="140.29 152.94 140.29 82.364 123.22 82.364 123.22 152.94" clip-rule="evenodd" fill="#1f1a17" fill-rule="evenodd"/><polygon transform="matrix(.51641 0 0 .51641 -70.593 110.55)" points="138.99 151.26 138.99 83.81 124.52 83.81 124.52 151.26" clip-rule="evenodd" fill="#18488b" fill-rule="evenodd"/><polygon transform="matrix(.51641 0 0 .51641 -70.593 110.55)" points="138.99 151.26 138.99 83.81 124.52 83.81 124.52 151.26" fill="none" stroke="#18488b" stroke-linecap="square" stroke-miterlimit="10" stroke-width=".4927"/><g clip-rule="evenodd" fill-rule="evenodd"><g fill="#1f1a17"><polygon transform="matrix(.51641 0 0 .51641 -70.593 110.55)" points="68.521 0.065 131.11 50.372 131.11 0 132.31 0 132.31 50.372 194.99 0 194.99 1.79 131.7 52.457 68.521 1.691"/><polygon transform="matrix(.51641 0 0 .51641 -70.593 110.55)" points="68.521 4.401 131.7 55.167 194.99 4.319 194.99 6.109 131.7 56.793 68.521 6.011"/><polygon transform="matrix(.51641 0 0 .51641 -70.593 110.55)" points="68.521 8.721 131.7 59.503 194.99 8.655 194.99 10.445 131.7 61.112 68.521 10.331"/><polygon transform="matrix(.51641 0 0 .51641 -70.593 110.55)" points="68.521 18.92 131.7 69.785 194.99 18.838 194.99 27.772 131.7 78.259 68.521 27.772"/></g><path d="m-35.208 173.58 1.6189-0.19468 1.6102-0.18643 1.5849-0.16938 1.5678-0.16164 1.5508-0.14407 1.5255-0.13633 1.5084-0.12704 1.4661-0.11 1.4496-0.10173 1.4067-0.0847 1.3731-0.0847 1.3303-0.0676 1.2967-0.0687 1.2544-0.0516 1.2037-0.0496 1.1526-0.0434 2.1607-0.0594 1.9412-0.0423 1.6866-0.0253 1.432-0.017h1.1449l0.84743 9e-3h0.52519l0.17816 8e-3h2.3734l1.1779 9e-3 1.1609 0.016 1.1516 0.0263 1.1366 0.0253 1.1356 0.0331 1.1185 0.0341 1.1025 0.0423 1.1005 0.0423 1.0865 0.0516 1.0659 0.0496 1.0612 0.0594 1.0509 0.0604 1.0338 0.0677 1.0246 0.0676 2.0171 0.15234 1.9577 0.16216 1.9071 0.17764 1.856 0.17765 1.7966 0.19571 1.7449 0.20399 1.6876 0.20294 1.6267 0.21173-0.64448 0.81489-0.66978 0.79785-0.7018 0.77875-0.72917 0.75654-0.76377 0.73743-0.78649 0.72039-0.81386 0.70489-0.84743 0.67857-0.87325 0.66048-0.88977 0.63622-0.92386 0.61039-0.94916 0.59387-0.9662 0.56805-0.9915 0.54378-1.0178 0.51744-1.0338 0.5004-1.0509 0.4658-1.0772 0.44153-1.1005 0.41467-1.1103 0.39041-1.1356 0.35684-1.1516 0.32998-1.1619 0.30675-1.1862 0.27111-1.195 0.2453-1.2203 0.21172-1.2203 0.17868-1.2456 0.15338-1.2466 0.11722-1.2709 0.0847-1.2709 0.0527-1.2884 0.016-1.2967-0.016-1.2802-0.0594-1.2714-0.0847-1.2626-0.11981-1.2461-0.14305-1.2373-0.18642-1.2203-0.21173-1.2032-0.24632-1.1867-0.27938-1.1691-0.30571-1.1614-0.33877-1.1356-0.3651-1.1185-0.3904-1.102-0.41674-1.085-0.44773-1.0592-0.47613-1.0426-0.5004-1.0173-0.5257-0.9915-0.55049-0.97446-0.56909-0.95019-0.60316-0.92386-0.61917-0.89855-0.64448-0.87273-0.66152-0.83916-0.68786-0.82212-0.71109-0.78804-0.7302-0.76274-0.74518-0.72917-0.76377-0.69509-0.78855-0.66926-0.80612zm15.763 13.8-1.2884-0.16163-1.2709-0.17971-1.2626-0.18539-1.2544-0.19469-1.2456-0.21173-1.2291-0.22102-1.2203-0.22877-1.2037-0.24736-1.195-0.24529-1.1779-0.26234-1.1697-0.28041-1.1526-0.27937-1.1438-0.29746-1.1191-0.30468-1.1191-0.31449-1.0932-0.32172-1.085-0.33102-1.0679-0.34806-1.0509-0.34806-1.0338-0.36407-1.0168-0.37439-1.0003-0.38214-0.9915-0.38008-0.9662-0.39918-0.95742-0.40745-0.93212-0.41468-0.91508-0.42448-0.89855-0.43172-0.88151-0.43275-0.86447-0.44979-0.83916-0.4498-0.82212-0.4658 1.0003-0.25407 1.0085-0.24736 1.0085-0.23703 1.0256-0.22774 1.0168-0.22205 1.0256-0.2107 2.0677-0.40796 1.0338-0.19468 1.0426-0.18643 1.0338-0.17868 1.0426-0.16938 1.0338-0.16215 1.0338-0.1606 1.0426-0.15234 1.0256-0.14408 0.38989 0.54274 0.40693 0.54172 0.41519 0.53448 0.43223 0.52725 0.4405 0.51641 0.44928 0.51744 0.4658 0.50143 0.47458 0.49937 0.49162 0.49214 0.49988 0.48439 0.50866 0.4751 0.5257 0.46476 0.53397 0.44979 0.54223 0.4498 0.55101 0.44153 0.56805 0.43275 0.57631 0.42345 0.58457 0.41571 0.59335 0.40745 0.6104 0.39763 0.6104 0.38214 0.62692 0.38214 0.6357 0.36407 0.64448 0.35581 0.65274 0.34702 0.661 0.34083 0.66978 0.32999 0.67804 0.31449 0.68682 0.30365 0.68631 0.29848 0.70335 0.28868zm68.004-10.196-0.82316 0.45908-0.83813 0.44979-0.8655 0.43275-0.87221 0.43275-0.89855 0.42243-0.90681 0.42448-0.93212 0.40745-0.94916 0.39815-0.9662 0.39041-0.9755 0.38111-0.99977 0.37439-1.0085 0.36407-1.0338 0.35529-1.0431 0.34806-1.0592 0.33979-1.0762 0.33102-1.0845 0.32276-1.1025 0.30571-1.1185 0.30468-1.1356 0.28764-1.1438 0.28041-1.1526 0.27215-1.1702 0.25407-1.1862 0.25407-1.195 0.23807-1.2032 0.22773-1.2213 0.22103-1.2275 0.20398-1.2476 0.19572-1.2528 0.18642-1.2637 0.16938-1.2709 0.16164 0.70386-0.27112 0.69405-0.28041 0.68786-0.29641 0.67804-0.29745 0.67804-0.3145 0.66049-0.32998 0.65274-0.33102 1.289-0.69612 0.6264-0.3651 0.61917-0.37233 0.60936-0.38111 0.6011-0.3904 0.58612-0.39815 0.58509-0.40745 0.56805-0.42346 0.56805-0.42448 0.55049-0.43172 0.53345-0.44153 0.53448-0.45909 0.51641-0.45702 0.50815-0.46683 0.5004-0.4751 0.48336-0.48336 0.4751-0.4911 0.4658-0.5004 0.44876-0.50246 0.44101-0.51745 0.43275-0.5164 0.41468-0.52571 0.39815-0.53448 0.3904-0.54275 1.7026 0.25408 1.62 0.2551 1.5342 0.25304 1.4496 0.25511 1.3638 0.24633 1.2719 0.23806 1.1769 0.22774 1.0855 0.22102 0.9915 0.21173 0.89855 0.19468 0.78752 0.17868 0.70386 0.16163 0.58509 0.14408 0.4911 0.11826 0.38111 0.10277zm-87.217-5.147-1.763 0.26234-1.6783 0.26233-1.5931 0.27215-1.5002 0.27112-1.4155 0.26336-1.3308 0.26337-1.2373 0.25408-1.1526 0.25407-1.0597 0.23806-0.97446 0.22877-0.88151 0.2107-0.78804 0.19468-0.69509 0.18746-0.60213 0.16163-0.50815 0.14305-0.41519 0.11981-0.66926-0.44153-0.65274-0.44979-0.6357-0.44876-0.61866-0.45806-0.60162-0.45805-0.58458-0.4751-0.56805-0.4658-0.54223-0.48439-0.53397-0.48439-0.50866-0.48233-0.49162-0.49213-0.47458-0.5004-0.45754-0.50143-0.43223-0.50815-0.41519-0.50815-0.39815-0.51744-0.38111-0.51744-0.35581-0.5257-0.3305-0.52674-0.32224-0.5257-0.29642-0.53449-0.27112-0.54274-0.25407-0.54378-0.22877-0.54223-0.21173-0.55152-0.18642-0.55101-0.1699-0.54997-0.14408-0.55979-0.11877-0.56805-0.10173-0.55979-0.07591-0.56908-0.05112-0.56805h25.806l0.01704 0.42346 0.0253 0.43275 0.03357 0.42397 0.04235 0.42397 0.05112 0.42397 0.05061 0.41623 0.05939 0.42345 0.06765 0.41571 0.07591 0.41571 0.08469 0.41571 0.08469 0.40693 0.09347 0.41571 0.10173 0.40744 0.11 0.40745 0.11 0.40641 0.11877 0.39919 0.12704 0.40538 0.13582 0.39918 0.13582 0.3904 0.14408 0.39815 0.15234 0.39041 0.15234 0.39815 0.16938 0.38214 0.16938 0.39041 0.1699 0.38111 0.17764 0.38214 0.18642 0.38008 0.19469 0.38214 0.20346 0.37233 0.20346 0.37439 0.20346 0.3651zm69.952-0.17867-1.6432-0.21173-1.6277-0.2045-1.6179-0.19468-1.6019-0.16835-1.5854-0.16164-1.5596-0.14511-1.5353-0.1353-1.5069-0.12704-1.4743-0.10999-1.4506-0.10277-1.4062-0.0847-1.3726-0.0847-1.3313-0.0677-1.289-0.0594-1.2445-0.0506-1.1872-0.0506-1.1438-0.0341-1.0845-0.033-1.0338-0.0274-0.9662-0.0243-1.7548-0.0253-1.4836-9e-3 -1.1852-9e-3 -0.88151 9e-3h-0.54378l-0.17764 9e-3 -1.2967-9e-3 -1.2797-9e-3 -1.2631 9e-3 -1.2456 9e-3 -1.2373 0.017-1.2203 0.017-1.2037 0.0253-1.1945 0.0253-1.1784 0.0423-1.1609 0.0341-1.1526 0.0506-1.1273 0.0423-1.1185 0.0594-1.1103 0.0584-1.085 0.0604-1.0762 0.0666-1.0597 0.0676-1.0426 0.0775-1.0338 0.0764-1.0173 0.0754-1.983 0.17764-1.9236 0.17971-1.8648 0.19469-1.7966 0.20398-1.746 0.20398-1.6783 0.21999-0.22051-0.35684-0.21173-0.35529-0.21173-0.3651-0.20346-0.36407-0.20346-0.3651-0.19469-0.37336-0.18642-0.37336-0.35632-0.74673-0.16938-0.38111-0.16112-0.38214-0.16112-0.38214-0.14408-0.38008-0.14408-0.39144-0.13582-0.3904-0.13582-0.38937-0.12704-0.39815-0.11826-0.39041-0.11-0.39815-0.10173-0.39918-0.10173-0.40745-0.08469-0.39815-0.08469-0.40693-0.07643-0.40693-0.07591-0.40745-0.05939-0.41571-0.05939-0.40641-0.05061-0.41622-0.04235-0.41571-0.03408-0.41623-0.03357-0.42345-0.01704-0.41571h75.902l-0.01704 0.42345-0.03305 0.42449-0.03408 0.42397-0.04234 0.41571-0.05061 0.41571-0.05939 0.42397-0.06765 0.40693-0.06868 0.41571-0.08469 0.41571-0.08469 0.40693-0.09295 0.40693-0.10173 0.40796-0.10173 0.40745-0.11826 0.39763-0.11877 0.39918-0.12704 0.39764-0.13633 0.40022-0.1353 0.38937-0.14408 0.39918-0.16164 0.38008-0.15234 0.3904-0.17042 0.38214-0.16835 0.38938-0.17764 0.37439-0.18642 0.38008-0.19469 0.3744-0.19675 0.37336-0.20192 0.37233-0.21173 0.3651-0.21276 0.3651-0.21999 0.3651zm31.936-12.645-0.05164 0.57683-0.0754 0.57631-0.10173 0.57632-0.12704 0.56908-0.15337 0.56805-0.16938 0.56908-0.19469 0.55927-0.21173 0.55101-0.24633 0.55927-0.25407 0.55152-0.28764 0.54275-0.30675 0.54274-0.32172 0.54378-0.34703 0.53448-0.3651 0.52571-0.38937 0.52467-0.40641 0.52725-0.43172 0.51744-0.45082 0.51744-0.46477 0.50815-0.4911 0.5004-0.50815 0.5004-0.5257 0.49214-0.54274 0.49213-0.56805 0.48233-0.58509 0.47509-0.60213 0.4751-0.61814 0.46683-0.63518 0.46684-0.65377 0.44979-0.67701 0.45805-0.68682 0.43998-1.0338-0.29538-1.0509-0.28971-1.0592-0.27938-1.0602-0.26233-1.0762-0.26337-1.0762-0.24736-1.0762-0.24529-1.0932-0.22981-1.0932-0.22773-1.0932-0.21173-1.1015-0.21173-1.0932-0.19571-1.1025-0.19469-2.203-0.35736-1.0932-0.17041 0.21999-0.36407 0.21173-0.38111 0.20398-0.37439 0.20398-0.38008 0.19469-0.3744 0.19469-0.38937 0.18539-0.38214 0.17868-0.3904 0.16938-0.38938 0.17042-0.3904 0.1606-0.39919 0.15234-0.39763 0.14408-0.39918 0.14304-0.39764 0.13736-0.40744 0.12704-0.40745 0.12704-0.40641 0.11-0.40745 0.11-0.41571 0.10173-0.40744 0.10173-0.41623 0.08469-0.41468 0.08469-0.42448 0.0754-0.41571 0.06868-0.42346 0.1167-0.84794 0.05267-0.43275 0.04234-0.42397 0.03305-0.43275 0.0253-0.43223 0.01704-0.43276zm-105.76-2.0186h-25.806l0.05112-0.56856 0.07591-0.56805 0.09347-0.56857 0.11826-0.55978 0.14408-0.55979 0.16938-0.55152 0.18642-0.55101 0.21224-0.55153 0.22877-0.55152 0.25407-0.54274 0.27111-0.53449 0.29642-0.53448 0.31346-0.53448 0.33876-0.52571 0.3558-0.52622 0.37285-0.51744 0.39815-0.51744 0.41519-0.50866 0.43223-0.50866 0.45754-0.5004 0.4658-0.49214 0.49162-0.49988 0.51692-0.48388 0.5257-0.48336 0.55049-0.48335 0.56805-0.46632 0.57631-0.4751 0.60162-0.45805 0.61866-0.45806 0.6357-0.44927 0.65274-0.44979 0.66926-0.44101 0.40693 0.11877 0.50866 0.14408 0.59335 0.16112 0.69509 0.17816 0.78804 0.20346 0.88151 0.21225 0.9662 0.22876 1.0592 0.23755 1.1526 0.24581 1.2461 0.26286 1.3308 0.26285 1.4237 0.26337 1.5084 0.27111 1.5931 0.27163 1.6783 0.27111 1.7713 0.26286-0.21224 0.3651-0.21173 0.37336-0.20346 0.37336-0.19469 0.37337-0.19469 0.38162-0.18642 0.37337-0.17816 0.38162-0.17816 0.38989-0.16938 0.38163-0.16112 0.38988-0.15234 0.38989-0.15234 0.39867-0.14408 0.38989-0.13582 0.39867-0.13582 0.39815-0.12704 0.40744-0.11826 0.39867-0.21999 0.81386-0.09347 0.40693-0.10173 0.41622-0.08469 0.40693-0.07643 0.41571-0.07591 0.4152-0.06765 0.4157-0.05939 0.42398-0.05939 0.4157-0.04235 0.42397-0.04235 0.42398-0.03357 0.42397-0.0253 0.43223zm77.928 0h-75.902l0.01704-0.4157 0.0253-0.42398 0.04235-0.4157 0.0847-0.83142 0.05939-0.40693 0.06765-0.41571 0.06765-0.40693 0.07591-0.40745 0.08469-0.40693 0.09347-0.39866 0.09347-0.40693 0.21999-0.79734 0.11826-0.38989 0.11877-0.39866 0.13582-0.38989 0.1353-0.39041 0.14408-0.38988 0.14408-0.38163 0.16112-0.38163 0.16112-0.38162 0.1699-0.38214 0.16938-0.38163 0.18642-0.37336 0.18642-0.37285 0.19469-0.3651 0.19469-0.36458 0.20346-0.36459 0.21224-0.3651 0.22051-0.35632 0.21999-0.35581 1.6783 0.21225 1.7377 0.21172 1.8054 0.20399 1.8642 0.19468 0.94916 0.0935 0.97498 0.0847 0.98324 0.0852 1.0003 0.0852 1.0168 0.0847 1.0256 0.0764 1.0509 0.0759 1.0597 0.0682 1.0762 0.0676 1.085 0.0594 1.1103 0.0589 1.1185 0.0511 1.1356 0.0511 1.1444 0.0506 1.1691 0.0336 1.1784 0.0341 1.1862 0.0341 1.212 0.0248 1.2203 0.017 1.2373 0.017 1.2456 9e-3h2.5428l1.2967-9e-3h0.17764l0.54378 9e-3 0.88151 8e-3 1.1852-8e-3 1.4836-9e-3 1.7548-0.0253 0.97446-0.0253 1.0256-0.0253 1.0932-0.0341 1.1345-0.0336 1.196-0.0511 1.2456-0.0511 1.2879-0.0594 1.3303-0.0759 1.3716-0.0759 1.4082-0.0935 1.4496-0.0929 1.4743-0.11878 1.5089-0.11877 1.5342-0.13582 1.5596-0.14459 1.5843-0.16112 1.6019-0.17816 1.6189-0.18642 1.636-0.20399 1.6442-0.21999 0.21896 0.36459 0.22206 0.35632 0.21999 0.36458 0.20295 0.37337 0.2045 0.36458 0.20192 0.37337 0.18746 0.38162 0.18642 0.37336 0.17868 0.38163 0.16938 0.38163 0.16938 0.3904 0.1606 0.38163 0.15337 0.38988 0.14304 0.39041 0.13633 0.39867 0.1353 0.39815 0.126 0.39866 0.11981 0.39867 0.11877 0.39867 0.1007 0.40693 0.10173 0.40745 0.09399 0.40693 0.08469 0.40744 0.0754 0.41571 0.0754 0.40693 0.06042 0.41622 0.05939 0.41571 0.05061 0.42397 0.04234 0.41571 0.03408 0.42397 0.03305 0.42398zm15.408-16.649 0.68682 0.44101 0.67804 0.44979 0.65274 0.45806 0.63467 0.46683 0.62021 0.46632 0.6011 0.47509 0.58406 0.47458 0.55979 0.48388 0.55152 0.49213 0.52467 0.49163 0.50143 0.50039 0.49007 0.50867 0.46683 0.50866 0.44876 0.50866 0.43275 0.51744 0.40641 0.52622 0.3904 0.52571 0.36407 0.53448 0.34806 0.53448 0.32172 0.53397 0.30365 0.54326 0.28041 0.55101 0.26337 0.55101 0.23703 0.551 0.21069 0.55979 0.19572 0.55979 0.16938 0.56856 0.15234 0.56857 0.11981 0.56805 0.10173 0.57682 0.0754 0.57683 0.05939 0.57683h-25.806l-0.02634-0.43275-0.0253-0.43275-0.03305-0.43223-0.04234-0.42397-0.05267-0.43224-0.04957-0.42397-0.05939-0.42397-0.07643-0.42397-0.0754-0.41571-0.07643-0.42449-0.09295-0.41571-0.09399-0.41519-0.1007-0.41571-0.11103-0.40744-0.11826-0.41571-0.11877-0.40693-0.12704-0.39815-0.1353-0.40745-0.14408-0.39867-0.14511-0.40693-0.15234-0.3904-0.1606-0.39815-0.16938-0.39041-0.16938-0.3904-0.17868-0.38989-0.18539-0.39041-0.18642-0.38162-0.19675-0.38111-0.20192-0.37336-0.21173-0.38163-0.21276-0.37336-0.21999-0.37337 1.1015-0.16989 1.1025-0.16939 1.1015-0.18642 1.1025-0.18642 1.1015-0.20398 1.0932-0.20347 1.1015-0.22051 1.0932-0.2205 1.0845-0.23755 1.0855-0.23703 1.0762-0.25407 1.0762-0.25511 1.0602-0.27111 1.0592-0.2799 1.0509-0.28867zm-88.284 1.9763-1.0338-0.14407-1.0426-0.15286-1.0338-0.16112-1.0426-0.1699-1.0338-0.16938-1.0426-0.17868-1.0338-0.18642-1.0426-0.19469-1.0338-0.1952-1.0338-0.21224-1.0256-0.21225-1.0256-0.2205-1.0168-0.22877-1.0168-0.23755-1.0085-0.24581-1.0003-0.25459 0.82212-0.46632 0.84743-0.44927 0.86447-0.44979 0.87273-0.44102 0.90681-0.43275 0.91508-0.42397 0.93212-0.41622 0.95742-0.40693 0.9662-0.39867 0.9915-0.38163 1.0003-0.38162 1.0168-0.37337 1.0426-0.36458 1.0509-0.34754 1.0679-0.34754 1.085-0.33102 1.0932-0.3305 1.1191-0.31398 1.1273-0.30571 1.1356-0.28816 1.1526-0.28867 1.1697-0.27112 1.1867-0.27163 1.195-0.24581 1.2037-0.24632 1.2203-0.22877 1.2285-0.22051 1.2461-0.21224 1.2544-0.20347 1.2714-0.18642 1.2709-0.1699 1.2884-0.16938-0.71161 0.27989-0.70335 0.28867-0.69509 0.29694-0.68631 0.3052-0.67804 0.31397-0.66926 0.3305-0.661 0.33928-0.65274 0.34755-0.64396 0.35632-0.6357 0.37336-0.62692 0.37285-0.6104 0.38989-0.6104 0.39866-0.59335 0.40693-0.58561 0.409-0.57631 0.42397-0.56805 0.44101-0.55927 0.44102-0.54223 0.44979-0.53397 0.45805-0.51692 0.46632-0.51692 0.47458-0.49988 0.48387-0.49162 0.49162-0.47458 0.49214-0.4658 0.50866-0.44928 0.51744-0.4405 0.51744-0.43223 0.52571-0.41519 0.53448-0.39815 0.54275zm67.479 0.14408-1.636 0.21225-1.6866 0.20346-1.7377 0.20347-1.8054 0.18642-1.856 0.18694-1.9061 0.17816-1.9587 0.16112-2.0083 0.14408-1.0256 0.0759-1.0421 0.0594-1.0437 0.0677-1.0659 0.0599-1.0679 0.0506-1.0855 0.0506-1.1015 0.0429-1.1103 0.0423-1.1185 0.0336-1.1268 0.0341-1.1459 0.0253-1.1516 0.0253-1.1609 9e-3 -1.1779 0.017h-2.5516l-0.52519 9e-3 -0.84743 9e-3 -1.1449-9e-3 -1.432-9e-3 -1.6949-0.0253-1.9329-0.0423-2.1607-0.0594-1.1614-0.0423-1.2032-0.0511-1.2544-0.0506-1.2967-0.0677-1.3308-0.0682-1.3726-0.0847-1.415-0.0935-1.4408-0.10173-1.4749-0.11051-1.5002-0.11826-1.5255-0.13582-1.5508-0.14408-1.5761-0.16111-1.5849-0.1699-1.6102-0.18643-1.6189-0.20346 0.6357-0.82264 0.66927-0.8056 0.70335-0.78029 0.72865-0.77203 0.76274-0.74621 0.78804-0.72917 0.82212-0.71264 0.83916-0.68734 0.87273-0.66978 0.89803-0.645 0.92386-0.61866 0.94916-0.60213 0.97498-0.56856 0.9915-0.55101 1.0256-0.52622 1.0338-0.49988 1.0674-0.4751 1.0762-0.44979 1.102-0.42397 1.1185-0.39041 1.1444-0.36458 1.1526-0.33928 1.1779-0.3052 1.1862-0.27163 1.212-0.25407 1.2203-0.21225 1.2291-0.1859 1.2544-0.14408 1.2544-0.11878 1.2797-0.0935 1.2802-0.0511 1.2967-0.0165 1.2884 0.0165 1.2802 0.0511 1.2616 0.0847 1.2559 0.11877 1.2368 0.15286 1.2296 0.17816 1.2115 0.21172 1.2032 0.24633 1.1872 0.27163 1.1609 0.30468 1.1526 0.33102 1.1356 0.3651 1.1185 0.38989 1.0932 0.41571 1.0762 0.44101 1.0592 0.46683 1.0338 0.5004 1.0168 0.51745 0.9915 0.54274 0.9662 0.56857 0.94916 0.59335 0.92386 0.61091 0.8908 0.64448 0.87221 0.65325 0.84846 0.68734 0.81179 0.69561 0.78959 0.72916 0.76274 0.73795 0.72814 0.76325 0.70386 0.77203 0.66978 0.79682zm-15.663-13.672 1.2709 0.16938 1.2709 0.1699 1.2559 0.18642 1.2373 0.19469 1.2368 0.20347 1.2192 0.2205 1.2043 0.22877 1.195 0.23755 1.1872 0.25459 1.1681 0.26285 1.1609 0.26337 1.1459 0.28815 1.1345 0.28868 1.1185 0.29693 1.1025 0.31346 1.0922 0.32276 1.069 0.32223 1.0679 0.33928 1.0421 0.34755 1.0256 0.3651 1.0168 0.36458 1.0008 0.37337 0.97446 0.38162 0.9662 0.38989 0.94916 0.40693 0.93212 0.40745 0.91559 0.4157 0.88977 0.42398 0.88151 0.43223 0.8562 0.44101 0.83916 0.44928 0.82212 0.45805-0.25407 0.0682-0.37336 0.0935-0.48439 0.11826-0.58406 0.13633-0.68682 0.16112-0.79578 0.18642-0.8908 0.1952-0.9915 0.20347-1.0932 0.22928-1.1779 0.22877-1.2791 0.24581-1.3659 0.24581-1.4573 0.25459-1.5503 0.25407-1.6277 0.25459-1.7196 0.25459-0.3904-0.53448-0.39918-0.53448-0.41364-0.53448-0.43275-0.51693-0.44153-0.51744-0.44773-0.49988-0.4658-0.5004-0.4751-0.49214-0.48439-0.48336-0.49937-0.47509-0.50815-0.47458-0.51641-0.45806-0.53448-0.44979-0.54378-0.44928-0.54946-0.43275-0.55875-0.42397-0.57683-0.42397-0.57683-0.40693-0.5918-0.39815-0.60213-0.39867-0.61143-0.38162-0.61711-0.37285-0.63518-0.35632-0.63622-0.35581-0.64344-0.34806-0.66152-0.33101-0.66049-0.33102-0.66978-0.31346-0.68579-0.29694-0.68786-0.29693-0.69405-0.27989z" fill="#1586c8" stroke-width=".51641"/><polygon transform="matrix(.51641 0 0 .51641 -70.593 110.55)" points="145.03 152.94 162.13 152.94 162.13 78.883 218.46 32.076 199.27 32.076 145.03 75.319" fill="#1f1a17"/><polygon transform="matrix(.51641 0 0 .51641 -70.593 110.55)" points="146.44 151.26 160.82 151.26 160.82 77.98 214.06 33.718 199.68 33.718 146.44 76.156" fill="#c32827"/></g><polygon transform="matrix(.51641 0 0 .51641 -70.593 110.55)" points="146.44 151.26 160.82 151.26 160.82 77.98 214.06 33.718 199.68 33.718 146.44 76.156" fill="none" stroke="#c32827" stroke-linecap="square" stroke-miterlimit="10" stroke-width=".4927"/><polygon transform="matrix(.51641 0 0 .51641 -70.593 110.55)" points="118.48 152.94 101.38 152.94 101.38 78.883 45.052 32.076 64.237 32.076 118.48 75.319" clip-rule="evenodd" fill="#1f1a17" fill-rule="evenodd"/><polygon transform="matrix(.51641 0 0 .51641 -70.593 110.55)" points="117.07 151.26 102.69 151.26 102.69 77.98 49.451 33.718 63.827 33.718 117.07 76.156" clip-rule="evenodd" fill="#fff" fill-rule="evenodd"/><polygon transform="matrix(.51641 0 0 .51641 -70.593 110.55)" points="117.07 151.26 102.69 151.26 102.69 77.98 49.451 33.718 63.827 33.718 117.07 76.156" fill="none" stroke="#fff" stroke-linecap="square" stroke-miterlimit="10" stroke-width=".4927"/><polygon transform="matrix(.51641 0 0 .51641 -70.593 110.55)" points="140.29 152.94 140.29 82.364 123.22 82.364 123.22 152.94" clip-rule="evenodd" fill="#1f1a17" fill-rule="evenodd"/><polygon transform="matrix(.51641 0 0 .51641 -70.593 110.55)" points="138.99 151.26 138.99 83.81 124.52 83.81 124.52 151.26" clip-rule="evenodd" fill="#18488b" fill-rule="evenodd"/><polygon transform="matrix(.51641 0 0 .51641 -70.593 110.55)" points="138.99 151.26 138.99 83.81 124.52 83.81 124.52 151.26" fill="none" stroke="#18488b" stroke-linecap="square" stroke-miterlimit="10" stroke-width=".4927"/><g clip-rule="evenodd" fill="#1f1a17" fill-rule="evenodd"><polygon transform="matrix(.51641 0 0 .51641 -70.593 110.55)" points="68.521 0.065 131.11 50.372 131.11 0 132.31 0 132.31 50.372 194.99 0 194.99 1.79 131.7 52.457 68.521 1.691"/><polygon transform="matrix(.51641 0 0 .51641 -70.593 110.55)" points="68.521 4.401 131.7 55.167 194.99 4.319 194.99 6.109 131.7 56.793 68.521 6.011"/><polygon transform="matrix(.51641 0 0 .51641 -70.593 110.55)" points="68.521 8.721 131.7 59.503 194.99 8.655 194.99 10.445 131.7 61.112 68.521 10.331"/><polygon transform="matrix(.51641 0 0 .51641 -70.593 110.55)" points="68.521 18.92 131.7 69.785 194.99 18.838 194.99 27.772 131.7 78.259 68.521 27.772"/></g></g>
</svg>
